<svg xmlns="http://www.w3.org/2000/svg" width="395.253" height="305.967" viewBox="0 0 395.253 305.967">
  <g id="login_screen_svg" transform="translate(0)">
    <path id="Path_1" data-name="Path 1" d="M276.43,142.058a145.711,145.711,0,0,1-47.8-8.023c-20.609-7.126-37.493-16.954-50.181-29.213-24-23.188-43.68-26.683-55.958-25.532-13.292,1.246-21.028,8.052-21.1,8.121l-.529-.589c.078-.07,7.974-7.031,21.508-8.315a53.124,53.124,0,0,1,24.669,3.9C157.553,86.57,168.307,93.921,179,104.252c12.605,12.178,29.39,21.946,49.89,29.034,37.632,13.011,80.045,9.861,116.364-8.643a131.191,131.191,0,0,1,35.324-12.43c14.394-2.675,28.044-2.054,40.575,1.844,27.537,8.567,46.346,8.113,57.275,6.224,11.793-2.038,17.143-6.117,17.2-6.158l.486.625c-.222.172-5.561,4.242-17.548,6.314-11.016,1.9-29.959,2.366-57.645-6.248-28.032-8.72-56.424.915-75.3,10.535a151.991,151.991,0,0,1-57.662,16.267Q282.171,142.058,276.43,142.058Z" transform="translate(-100.859 -72.485)" fill="#3f3d56"/>
    <circle id="Ellipse_9" data-name="Ellipse 9" cx="8.025" cy="8.025" r="8.025" transform="translate(165.948 63.349)" fill="#2874f0"/>
    <circle id="Ellipse_10" data-name="Ellipse 10" cx="8.025" cy="8.025" r="8.025" transform="translate(290.271 31.279)" fill="#2874f0"/>
    <circle id="Ellipse_11" data-name="Ellipse 11" cx="8.025" cy="8.025" r="8.025" transform="translate(31.727 0)" fill="#2874f0"/>
    <path id="Path_2" data-name="Path 2" d="M685.6,429.8v77.534h12.191V436.63h48.764v70.707h12.191V352.269H746.558c-4.04,0-10.24,21.039-10.24,42.181,0,15.935,1.861,29.592,4.507,35.354Zm60.955,0h-.119c.04-.087.079-.178.119-.268Z" transform="translate(-454.083 -237.981)" fill="#3f3d56"/>
    <path id="Path_3" data-name="Path 3" d="M772.06,255.342h0c-10.007,0-18.119,9-18.119,20.108v14.109h4.339l2.512-5.228-.628,5.228h27.892l2.284-4.752-.571,4.752h3.14V278.481C792.911,265.7,783.576,255.342,772.06,255.342Z" transform="translate(-495.365 -179.43)" fill="#2f2e41"/>
    <path id="Path_4" data-name="Path 4" d="M654.242,488.168,643.117,492.9l-38.659,31.428a11.378,11.378,0,0,0-2.5,6.119c-.278,3.616-11.959,22.528-7.787,25.031s19.19,10.012,20.025,5.006,5.284-26.421,5.284-26.421l37.268-33.375Z" transform="translate(-398.307 -320.073)" fill="#2f2e41"/>
    <path id="Path_5" data-name="Path 5" d="M593.981,658.569l-4.728,13.906s5.006,5.284,2.5,9.734v15.3h-3.894l-1.112-8.065s-4.435,7.964-6.675,8.065c-4.7.214-13.995,1.884-14.273-.619s7.042-4.943,7.042-4.943l7.787-21.415,3.338-13.072Z" transform="translate(-381.711 -422.334)" fill="#2f2e41"/>
    <path id="Path_6" data-name="Path 6" d="M716.083,458.668s2.5,24.475-4.728,28.925-39.215,18.634-39.215,18.634,13.628,12.794,10.847,15.853-15.3,11.4-16.965,9.734-20.3-21.693-18.078-28.09,33.1-27.256,33.1-27.256l3.616-13.072,1.112-10.569,11.681-7.509Z" transform="translate(-431.223 -294.189)" fill="#2f2e41"/>
    <circle id="Ellipse_12" data-name="Ellipse 12" cx="11.594" cy="11.594" r="11.594" transform="translate(260.523 84.308)" fill="#ffb9b9"/>
    <path id="Path_7" data-name="Path 7" d="M790.473,317.825s-.556,10.569,8.066,13.906-21.415,25.031-21.415,25.031v-24.2s3.894-4.172,0-10.569Z" transform="translate(-509.367 -217.174)" fill="#ffb9b9"/>
    <path id="Path_8" data-name="Path 8" d="M833.735,443.211l-2.225,10.847-6.675,37.268s5.562,15.853-1.947,15.575S819,489.657,819,489.657l3.894-30.871V446.827Z" transform="translate(-534.136 -292.916)" fill="#ffb9b9"/>
    <path id="Path_9" data-name="Path 9" d="M709.546,429.865l-2.5,9.734-11.4,27.534s-7.787,13.072-1.391,12.794,6.4-12.794,6.4-12.794l13.072-22.25V432.368Z" transform="translate(-457.783 -284.854)" fill="#ffb9b9"/>
    <path id="Path_10" data-name="Path 10" d="M718.236,634.978l9.178,8.622s6.4-1.391,8.9,6.119,4.172,12.237,4.172,12.237l-3.337,1.947-4.172-5.841s-2.5,10.569-5.006,11.4-15.019,6.4-13.906,0l6.119-8.9s.834-10.012-1.669-10.847-9.178-9.178-9.178-9.178Z" transform="translate(-468.42 -408.756)" fill="#2f2e41"/>
    <path id="Path_11" data-name="Path 11" d="M773.027,480.729s-26.143-9.456-27.812-8.622a12.544,12.544,0,0,1-3.917,1.017l.024-3.8s8.622-3.059,13.35-1.112,19.19,10.569,19.19,10.569Z" transform="translate(-487.727 -307.627)" fill="#3f3d56"/>
    <path id="Path_12" data-name="Path 12" d="M757.118,370.073s7.509-8.622,9.734-13.906a13.654,13.654,0,0,1,7.218-7.1s16.7,3.76,16.422,10.435-10.569,16.965-10.569,16.965,1.391,36.99-6.119,36.434a16.106,16.106,0,0,1-3.338-6.675c-.834-3.894-26.7-8.066-26.7-8.066s-2.225,3.894-2.5,2.225,2.225-42.553,2.225-42.553l13.263-8.767Z" transform="translate(-487.694 -236.048)" fill="#d0cde1"/>
    <path id="Path_13" data-name="Path 13" d="M839.478,367.89l.186.1a3.837,3.837,0,0,1,1.959,3.347l0,20.64A3.867,3.867,0,0,0,843,394.925c1.071.911,2.065,2.224.015,2.908-3.337,1.112-16.409,6.675-16.687,4.728s-.834-4.172,0-4.172c.653,0,4.545-19.944,7.672-28.471a3.838,3.838,0,0,1,5.482-2.028Z" transform="translate(-538.822 -247.12)" fill="#d0cde1"/>
    <path id="Path_14" data-name="Path 14" d="M737.657,368.752l-3.894,1.112-4.45,19.19s-5.284,1.112-3.616,3.059,8.622,6.953,8.622,6.953Z" transform="translate(-478.107 -247.938)" fill="#d0cde1"/>
    <path id="Path_15" data-name="Path 15" d="M781.785,263.495a9.5,9.5,0,0,0-7.5-3.826h-.356c-6.859,0-12.419,6.206-12.419,13.862h2.3l.371-2.825.544,2.825h13.63l1.142-2.39-.286,2.39h2.682q1.877,9.321-5.394,18.642h4.568l2.284-4.78-.571,4.78h8.707l1.713-10.994C793.2,272.945,788.418,265.963,781.785,263.495Z" transform="translate(-499.938 -182.044)" fill="#2f2e41"/>
    <path id="Path_16" data-name="Path 16" d="M194.158,462.55c2.926-6.37,4.984-21.47,4.984-39.089,0-23.375-6.856-46.638-11.322-46.638H174.34V548.277h13.479V470.1h53.917v78.179h13.479V462.55Zm-6.339-.3c.044.1.087.2.131.3h-.131Z" transform="translate(-145.246 -252.813)" fill="#3f3d56"/>
    <path id="Path_17" data-name="Path 17" d="M357.231,514.342s16.233,6.731,11.086,10.69-15.837-4.751-15.441-5.939-1.584-3.959-1.584-3.959Z" transform="translate(-252.137 -335.884)" fill="#9f616a"/>
    <path id="Path_18" data-name="Path 18" d="M327.272,380.342l5.147,4.751,1.188,13.858,3.959,14.65s6.731,13.858,5.543,16.629,1.188,3.563,1.188,3.563l-9.106,3.563s-9.9-11.086-9.9-13.462S327.272,380.342,327.272,380.342Z" transform="translate(-236.431 -254.939)" fill="#575a88"/>
    <path id="Path_19" data-name="Path 19" d="M327.272,380.342l5.147,4.751,1.188,13.858,3.959,14.65s6.731,13.858,5.543,16.629,1.188,3.563,1.188,3.563l-9.106,3.563s-9.9-11.086-9.9-13.462S327.272,380.342,327.272,380.342Z" transform="translate(-236.431 -254.939)" opacity="0.1"/>
    <path id="Path_20" data-name="Path 20" d="M449.646,734.905s-1.98,9.106-2.376,9.9,7.523,3.563,7.523,3.563l9.5-6.731s-3.959-8.711-3.959-10.294Z" transform="translate(-310.106 -466.966)" fill="#575a88"/>
    <path id="Path_21" data-name="Path 21" d="M279.935,516.342l2.772,3.167s57.41,7.127,58.6,18.213,9.5,63.349,4.751,64.933-17.025,7.523-17.025,4.355-7.919-46.72-6.335-54.639c0,0-68.5-8.711-70.08-18.609s1.584-14.254,1.584-14.254Z" transform="translate(-192.262 -337.092)" fill="#2f2e41"/>
    <path id="Path_22" data-name="Path 22" d="M279.935,516.342l2.772,3.167s57.41,7.127,58.6,18.213,9.5,63.349,4.751,64.933-17.025,7.523-17.025,4.355-7.919-46.72-6.335-54.639c0,0-68.5-8.711-70.08-18.609s1.584-14.254,1.584-14.254Z" transform="translate(-192.262 -337.092)" opacity="0.1"/>
    <path id="Path_23" data-name="Path 23" d="M444.622,755.107s-1.584-3.563-2.376-2.376-3.563,15.045-.792,15.045,28.111,6.335,31.675,5.543,10.294.4,9.5-3.563a5.557,5.557,0,0,0-4.751-4.355s-14.65-8.711-15.441-13.066-5.147-1.98-5.147-1.98v2.772S448.977,759.462,444.622,755.107Z" transform="translate(-305.874 -478.061)" fill="#2f2e41"/>
    <path id="Path_24" data-name="Path 24" d="M254.151,300.356s2.772,13.462-3.167,14.65,7.523,9.106,7.523,9.106l8.711,4.751,6.335-6.335s-5.741-11.68-1.386-20.391S254.151,300.356,254.151,300.356Z" transform="translate(-190.63 -205.044)" fill="#9f616a"/>
    <path id="Path_25" data-name="Path 25" d="M273.552,322.529l-6.335,6.335-8.711-4.751s-13.462-7.919-7.523-9.106c3.821-.764,4.035-6.608,3.706-10.678a36.818,36.818,0,0,0-.538-3.971s22.37-6.929,18.015,1.782a15.189,15.189,0,0,0-1.362,4.26C269.47,314.226,273.552,322.529,273.552,322.529Z" transform="translate(-190.63 -205.044)" fill="#9f616a"/>
    <path id="Path_26" data-name="Path 26" d="M265.433,699.687v9.106h15.045l1.188-3.563-1.584-9.5Z" transform="translate(-160.339 -420.266)" fill="#575a88"/>
    <path id="Path_27" data-name="Path 27" d="M209.292,529.093s0,23.36,9.5,24.152,43.553,5.147,43.553,5.147,1.98,38.8,5.543,51.471.4,13.462,3.563,14.254,16.629-1.98,16.233-4.751-1.98-72.852-1.98-72.852,3.563-15.046-43.949-22.172Z" transform="translate(-166.36 -341.924)" fill="#2f2e41"/>
    <path id="Path_28" data-name="Path 28" d="M361.26,775.557s-2.376-5.147-2.772-3.563-5.147,15.441-.4,16.629,19.8,7.523,29.695,7.127,11.086-.792,11.086-.792,2.772-3.959-.792-6.335-18.213-16.233-19-17.817-6.731-2.772-6.731,0S364.031,779.12,361.26,775.557Z" transform="translate(-254.978 -489.8)" fill="#2f2e41"/>
    <path id="Path_29" data-name="Path 29" d="M279.307,302.138a15.189,15.189,0,0,0-1.362,4.26c-1.972,1.192-3.29.887-5.765.887-3.67,0-5.151-4.692-7.523-7.127-.186-2.261-3.365.2-3.365.2S283.662,293.427,279.307,302.138Z" transform="translate(-197.771 -205.044)" opacity="0.1"/>
    <circle id="Ellipse_13" data-name="Ellipse 13" cx="13.066" cy="13.066" r="13.066" transform="translate(60.353 75.911)" fill="#9f616a"/>
    <path id="Path_30" data-name="Path 30" d="M254.869,360.2s-1.98,14.254-3.167,19.4-2.772,28.9-3.563,32.071-5.543,3.959-15.045,2.772a17.868,17.868,0,0,0-1.8-.135c-5.852-.186-12.547,2-18.743,3.722a47.117,47.117,0,0,1-9.946,1.956c-4.514.206-5.836-4.8-5.682-10.215.146-5.04,1.576-10.445,2.91-12.353,2.4-3.437.04-34.292.927-44.467v0a7.372,7.372,0,0,1,.657-3.041c2.376-3.167,17.817-11.086,19.547-10.765s16.483,9.578,16.483,9.578c3.563,0,3.449-3.864,3.449-3.864s2.49,4.656,7.242,5.844S254.869,360.2,254.869,360.2Z" transform="translate(-158.881 -230.043)" fill="#575a88"/>
    <path id="Path_31" data-name="Path 31" d="M270.874,521.984s25.5.812,21.037,3.842-24.265,5.8-24.66,1.842S270.874,521.984,270.874,521.984Z" transform="translate(-201.354 -340.5)" fill="#9f616a"/>
    <path id="Path_32" data-name="Path 32" d="M231.313,434.973c.083,1.52-4.007,4.945-5.329,7.261-.732,1.283-6.4-.408-13.414-3.54a137.549,137.549,0,0,1-15.627-8.259c.146-5.04,1.576-10.445,2.91-12.353,2.4-3.437.04-34.292.927-44.467v0a4.387,4.387,0,0,1,.657-.269h4.751c16.233,7.523-2.376,39.989-2.376,39.989s24.548,20.193,26.923,20.984A.712.712,0,0,1,231.313,434.973Z" transform="translate(-158.899 -250.71)" opacity="0.1"/>
    <path id="Path_33" data-name="Path 33" d="M186.05,367.342H181.3s-4.355,1.188-7.919,9.106-16.629,32.466-5.147,41.969,36.03,20.589,37.614,17.817,7.127-7.127,4.751-7.919-26.923-20.984-26.923-20.984S202.283,374.865,186.05,367.342Z" transform="translate(-138.762 -247.086)" fill="#575a88"/>
    <path id="Path_34" data-name="Path 34" d="M255.565,252.444s.573-7.937,7.647-4.7,6.612-5.684,4.474-7.261-2.07-1.967-9.888-.912-23,2.842-18.089,18.562,9.353,11.676,9.353,11.676-3.9-14.146.052-11.451l3.953,2.7,2.086-.442Z" transform="translate(-184.156 -169.546)" fill="#2f2e41"/>
    <path id="Path_35" data-name="Path 35" d="M656.449,541.918c0-7.147-53.107-12.94-118.616-12.94s-118.616,5.793-118.616,12.94c0,2.77,7.982,5.336,21.567,7.441v88.53h6.47V550.271c21.758,2.8,54.259,4.586,90.58,4.586,36.62,0,69.36-1.811,91.119-4.656v87.687h6.47V549.273C648.678,547.185,656.449,544.651,656.449,541.918Z" transform="translate(-293.168 -344.725)" fill="#3f3d56"/>
    <ellipse id="Ellipse_14" data-name="Ellipse 14" cx="24.152" cy="5.939" rx="24.152" ry="5.939" transform="translate(235.375 185.585)" fill="#f2f2f2"/>
    <ellipse id="Ellipse_15" data-name="Ellipse 15" cx="19.797" cy="4.868" rx="19.797" ry="4.868" transform="translate(239.73 186.656)" fill="#d0cde1"/>
    <ellipse id="Ellipse_16" data-name="Ellipse 16" cx="24.152" cy="5.939" rx="24.152" ry="5.939" transform="translate(145.498 190.336)" fill="#f2f2f2"/>
    <ellipse id="Ellipse_17" data-name="Ellipse 17" cx="19.797" cy="4.868" rx="19.797" ry="4.868" transform="translate(149.853 191.407)" fill="#d0cde1"/>
    <ellipse id="Ellipse_18" data-name="Ellipse 18" cx="11.514" cy="1.818" rx="11.514" ry="1.818" transform="translate(247.451 187.469)" fill="#9f616a"/>
    <ellipse id="Ellipse_19" data-name="Ellipse 19" cx="3.636" cy="1.969" rx="3.636" ry="1.969" transform="translate(249.193 184.666)" fill="#6c63ff"/>
    <ellipse id="Ellipse_20" data-name="Ellipse 20" cx="3.636" cy="1.969" rx="3.636" ry="1.969" transform="translate(247.83 184.666)" fill="#2874f0"/>
    <ellipse id="Ellipse_21" data-name="Ellipse 21" cx="3.636" cy="1.969" rx="3.636" ry="1.969" transform="translate(263.737 185.12)" fill="#2874f0"/>
    <ellipse id="Ellipse_22" data-name="Ellipse 22" cx="3.636" cy="1.969" rx="3.636" ry="1.969" transform="translate(255.405 184.666)" fill="#2874f0"/>
    <ellipse id="Ellipse_23" data-name="Ellipse 23" cx="3.636" cy="1.969" rx="3.636" ry="1.969" transform="translate(261.616 184.666)" fill="#2874f0"/>
    <path id="Path_36" data-name="Path 36" d="M748.915,517.581q-9.857,3.345-22.119,0v-.307a9.035,9.035,0,0,1,8.58-9.029,56.754,56.754,0,0,1,5.85.007,8.164,8.164,0,0,1,7.689,8.171Z" transform="translate(-478.967 -332.157)" fill="#3f3d56"/>
    <path id="Path_37" data-name="Path 37" d="M745.8,545.945a72.676,72.676,0,0,1-14.606,0,4.667,4.667,0,0,1-4.211-4.637h23.028A4.667,4.667,0,0,1,745.8,545.945Z" transform="translate(-479.082 -352.173)" fill="#3f3d56"/>
    <path id="Path_38" data-name="Path 38" d="M741.991,514.971a4.333,4.333,0,0,1-3.333,0,4.333,4.333,0,0,1,3.333,0Z" transform="translate(-486.132 -336.063)" fill="#d0cde1"/>
    <path id="Path_39" data-name="Path 39" d="M750.409,518.416a4.333,4.333,0,0,1-3.333,0,4.333,4.333,0,0,1,3.333,0Z" transform="translate(-491.217 -338.143)" fill="#d0cde1"/>
    <path id="Path_40" data-name="Path 40" d="M751.175,512.294a4.333,4.333,0,0,1-3.333,0A4.333,4.333,0,0,1,751.175,512.294Z" transform="translate(-491.68 -334.445)" fill="#d0cde1"/>
    <path id="Path_41" data-name="Path 41" d="M766.863,512.294a4.333,4.333,0,0,1-3.333,0A4.333,4.333,0,0,1,766.863,512.294Z" transform="translate(-501.156 -334.445)" fill="#d0cde1"/>
    <path id="Path_42" data-name="Path 42" d="M762.654,515.737a4.333,4.333,0,0,1-3.333,0,4.333,4.333,0,0,1,3.333,0Z" transform="translate(-498.614 -336.525)" fill="#d0cde1"/>
    <ellipse id="Ellipse_24" data-name="Ellipse 24" cx="11.514" cy="1.818" rx="11.514" ry="1.818" transform="translate(157.97 192.22)" fill="#9f616a"/>
    <ellipse id="Ellipse_25" data-name="Ellipse 25" cx="3.636" cy="1.969" rx="3.636" ry="1.969" transform="translate(159.712 189.417)" fill="#6c63ff"/>
    <path id="Path_63" data-name="Path 63" d="M3.636,0C5.644,0,7.272.882,7.272,1.969S5.644,3.939,3.636,3.939,0,3.057,0,1.969,1.628,0,3.636,0Z" transform="translate(158.349 189.417)" fill="#2874f0"/>
    <ellipse id="Ellipse_27" data-name="Ellipse 27" cx="3.636" cy="1.969" rx="3.636" ry="1.969" transform="translate(174.256 189.872)" fill="#2874f0"/>
    <ellipse id="Ellipse_28" data-name="Ellipse 28" cx="3.636" cy="1.969" rx="3.636" ry="1.969" transform="translate(165.924 189.417)" fill="#2874f0"/>
    <ellipse id="Ellipse_29" data-name="Ellipse 29" cx="3.636" cy="1.969" rx="3.636" ry="1.969" transform="translate(172.135 189.417)" fill="#2874f0"/>
    <path id="Path_43" data-name="Path 43" d="M522.915,529.581q-9.857,3.345-22.119,0v-.307a9.035,9.035,0,0,1,8.58-9.029,56.718,56.718,0,0,1,5.85.007,8.164,8.164,0,0,1,7.689,8.171Z" transform="translate(-342.448 -339.406)" fill="#3f3d56"/>
    <path id="Path_44" data-name="Path 44" d="M519.8,557.945a72.685,72.685,0,0,1-14.606,0,4.667,4.667,0,0,1-4.211-4.637h23.028A4.667,4.667,0,0,1,519.8,557.945Z" transform="translate(-342.563 -359.422)" fill="#3f3d56"/>
    <path id="Path_45" data-name="Path 45" d="M515.991,526.971a4.333,4.333,0,0,1-3.333,0,4.333,4.333,0,0,1,3.333,0Z" transform="translate(-349.613 -343.311)" fill="#d0cde1"/>
    <path id="Path_46" data-name="Path 46" d="M524.409,530.416a4.333,4.333,0,0,1-3.333,0A4.333,4.333,0,0,1,524.409,530.416Z" transform="translate(-354.698 -345.392)" fill="#d0cde1"/>
    <path id="Path_47" data-name="Path 47" d="M525.175,524.294a4.332,4.332,0,0,1-3.333,0A4.333,4.333,0,0,1,525.175,524.294Z" transform="translate(-355.161 -341.694)" fill="#d0cde1"/>
    <path id="Path_48" data-name="Path 48" d="M540.863,524.294a4.332,4.332,0,0,1-3.333,0A4.333,4.333,0,0,1,540.863,524.294Z" transform="translate(-364.637 -341.694)" fill="#d0cde1"/>
    <path id="Path_49" data-name="Path 49" d="M536.654,527.737a4.333,4.333,0,0,1-3.333,0A4.333,4.333,0,0,1,536.654,527.737Z" transform="translate(-362.095 -343.774)" fill="#d0cde1"/>
    <path id="Path_50" data-name="Path 50" d="M791,543.277l.056,1.226.071,1.591s-7.306.413-8.777,1.968a.9.9,0,0,0-.094.108l-2.926-.64-.007-1.442.119-.065.063-.033A26.634,26.634,0,0,1,791,543.277Z" transform="translate(-510.696 -353.362)" fill="#2874f0"/>
    <path id="Path_51" data-name="Path 51" d="M791.181,543.277l.056,1.226c-3.24.1-9.371,2.031-9.371,2.031l-2.244-.512A26.56,26.56,0,0,1,791.181,543.277Z" transform="translate(-510.877 -353.362)" opacity="0.1"/>
    <path id="Path_52" data-name="Path 52" d="M779.5,550.13l2.182.545.664,1.527a.888.888,0,0,0-.094.108l-2.926-.641-.007-1.442.119-.065Z" transform="translate(-510.696 -357.502)" fill="#fff" opacity="0.1"/>
    <path id="Path_53" data-name="Path 53" d="M568,556.277l.056,1.226.071,1.591s-7.306.413-8.777,1.968a.9.9,0,0,0-.094.108l-2.926-.64-.007-1.442.119-.065.063-.033A26.635,26.635,0,0,1,568,556.277Z" transform="translate(-375.989 -361.215)" fill="#2874f0"/>
    <path id="Path_54" data-name="Path 54" d="M568.181,556.277l.056,1.226c-3.24.1-9.371,2.031-9.371,2.031l-2.244-.512A26.56,26.56,0,0,1,568.181,556.277Z" transform="translate(-376.17 -361.215)" opacity="0.1"/>
    <path id="Path_55" data-name="Path 55" d="M556.5,563.13l2.182.545.664,1.527a.887.887,0,0,0-.094.108l-2.926-.641-.007-1.442.119-.065Z" transform="translate(-375.989 -365.355)" fill="#fff" opacity="0.1"/>
    <path id="Path_56" data-name="Path 56" d="M901.551,423.714a7.309,7.309,0,0,0-2.157-1.49V406.839a.68.68,0,0,0-.68-.68h-3.808a.68.68,0,0,0-.68.68v15.089a6.9,6.9,0,0,0-4.731,6.551v33a3.024,3.024,0,0,0,3.024,3.024h8.158a3.01,3.01,0,0,0,3.01-3.01V428.869A7.267,7.267,0,0,0,901.551,423.714Z" transform="translate(-577.247 -270.534)" fill="#3f3d56"/>
    <path id="Path_62" data-name="Path 62" d="M0,0H14.192V18.748H0Z" transform="translate(312.247 162.784)" fill="#2874f0"/>
    <path id="Path_57" data-name="Path 57" d="M906.45,407.211h-.307v-.371a.68.68,0,0,0-.68-.68h-3.809a.68.68,0,0,0-.68.68v.371h-.307v1.577h.307v8.06h5.169v-8.06h.307Z" transform="translate(-583.997 -270.534)" fill="#2874f0"/>
    <path id="Path_58" data-name="Path 58" d="M609.1,481.837c-.376-.8-.672-1.369-.776-1.564-6.371,1.572-10.621.244-11.291.009a37.446,37.446,0,0,0-3.2,8.369c-.747,3.422-.314,5.716,1.289,6.818l.047.034.01.007c1.769,1.166,3.456,2.2,5.015,3.068q.315.175.594.326l.02.011.014.018a9.467,9.467,0,0,1,.6.842,3.31,3.31,0,0,1,.605,1.637v16.995l-.107,0c-4.064.083-6.579.772-6.579,1.362,0,.648,3.016,1.37,7.344,1.37s7.344-.722,7.344-1.37c0-.582-2.473-1.267-6.467-1.359l-.108,0,.1-15.721a6.933,6.933,0,0,1,.723-3.067c.081-.16.167-.316.258-.463.073-.118.149-.233.228-.342l.015-.02.022-.012q.3-.164.637-.355l.026-.014c1.475-.833,3.064-1.81,4.724-2.9,1.482-.977,2-2.952,1.534-5.869A31.332,31.332,0,0,0,609.1,481.837Z" transform="translate(-398.432 -315.304)" fill="#d0cde1"/>
    <path id="Path_59" data-name="Path 59" d="M610.749,508.195c-1.74,1.147-3.177,2.007-4.276,2.627h0a25.022,25.022,0,0,0-4.807.135c-1.126-.629-2.646-1.531-4.516-2.762l-.053-.036h0c-1.715-1.18-1.757-3.678-1.2-6.232a15.111,15.111,0,0,1,6.722,1,15.692,15.692,0,0,0,9.552-.1C612.529,505.073,612.311,507.165,610.749,508.195Z" transform="translate(-399.702 -328.344)" fill="#2874f0"/>
    <circle id="Ellipse_30" data-name="Ellipse 30" cx="0.493" cy="0.493" r="0.493" transform="translate(200.207 171.67)" fill="#6c63ff"/>
    <circle id="Ellipse_31" data-name="Ellipse 31" cx="0.493" cy="0.493" r="0.493" transform="translate(198.827 176.203)" fill="#fff"/>
    <circle id="Ellipse_32" data-name="Ellipse 32" cx="0.296" cy="0.296" r="0.296" transform="translate(201.586 173.05)" fill="#6c63ff"/>
    <circle id="Ellipse_33" data-name="Ellipse 33" cx="0.296" cy="0.296" r="0.296" transform="translate(202.769 178.667)" fill="#fff"/>
    <circle id="Ellipse_34" data-name="Ellipse 34" cx="0.296" cy="0.296" r="0.296" transform="translate(200.699 178.963)" fill="#fff"/>
    <circle id="Ellipse_35" data-name="Ellipse 35" cx="0.296" cy="0.296" r="0.296" transform="translate(206.711 169.108)" fill="#6c63ff"/>
    <path id="Path_60" data-name="Path 60" d="M667.477,441.372c-.376-.8-.672-1.369-.776-1.564-6.371,1.572-10.621.244-11.291.009a37.458,37.458,0,0,0-3.2,8.369c-.747,3.422-.313,5.716,1.289,6.818l.047.034.01.007c1.769,1.166,3.456,2.2,5.015,3.068q.315.175.594.326l.02.011.014.018a9.488,9.488,0,0,1,.6.842,3.31,3.31,0,0,1,.605,1.636v16.995l-.107,0c-4.064.083-6.579.772-6.579,1.362,0,.648,3.016,1.37,7.344,1.37s7.344-.722,7.344-1.37c0-.582-2.473-1.267-6.467-1.359l-.108,0,.1-15.721a6.932,6.932,0,0,1,.723-3.067c.081-.16.167-.316.258-.463.073-.118.149-.233.228-.342l.014-.02.022-.012q.3-.164.637-.355l.026-.014c1.475-.833,3.065-1.81,4.724-2.9,1.482-.977,2-2.952,1.534-5.869A31.363,31.363,0,0,0,667.477,441.372Z" transform="translate(-433.696 -290.86)" fill="#d0cde1"/>
    <path id="Path_61" data-name="Path 61" d="M669.127,467.729c-1.74,1.147-3.177,2.007-4.276,2.627h0a25.025,25.025,0,0,0-4.807.135c-1.126-.629-2.646-1.53-4.516-2.762l-.053-.036h0c-1.715-1.18-1.757-3.678-1.2-6.232a15.111,15.111,0,0,1,6.722,1,15.692,15.692,0,0,0,9.552-.1C670.908,464.607,670.689,466.7,669.127,467.729Z" transform="translate(-434.966 -303.9)" fill="#2874f0"/>
    <circle id="Ellipse_36" data-name="Ellipse 36" cx="0.493" cy="0.493" r="0.493" transform="translate(223.32 155.649)" fill="#6c63ff"/>
    <circle id="Ellipse_37" data-name="Ellipse 37" cx="0.493" cy="0.493" r="0.493" transform="translate(221.941 160.182)" fill="#fff"/>
    <circle id="Ellipse_38" data-name="Ellipse 38" cx="0.296" cy="0.296" r="0.296" transform="translate(224.7 157.028)" fill="#6c63ff"/>
    <circle id="Ellipse_39" data-name="Ellipse 39" cx="0.296" cy="0.296" r="0.296" transform="translate(225.883 162.645)" fill="#fff"/>
    <circle id="Ellipse_40" data-name="Ellipse 40" cx="0.296" cy="0.296" r="0.296" transform="translate(223.813 162.941)" fill="#fff"/>
    <circle id="Ellipse_41" data-name="Ellipse 41" cx="0.296" cy="0.296" r="0.296" transform="translate(229.825 153.086)" fill="#6c63ff"/>
  </g>
</svg>
